<?xml version="1.0" encoding="UTF-8" standalone="no"?>
<!-- Created with Inkscape (http://www.inkscape.org/) -->

<svg
   xmlns:dc="http://purl.org/dc/elements/1.1/"
   xmlns:cc="http://creativecommons.org/ns#"
   xmlns:rdf="http://www.w3.org/1999/02/22-rdf-syntax-ns#"
   xmlns:svg="http://www.w3.org/2000/svg"
   xmlns="http://www.w3.org/2000/svg"
   xmlns:sodipodi="http://sodipodi.sourceforge.net/DTD/sodipodi-0.dtd"
   xmlns:inkscape="http://www.inkscape.org/namespaces/inkscape"
   width="1339.4612mm"
   height="1065.4224mm"
   viewBox="0 0 1339.4612 1065.4224"
   version="1.1"
   id="svg8"
   inkscape:version="0.92.4 (5da689c313, 2019-01-14)"
   sodipodi:docname="full_bird.svg">
  <defs
     id="defs2">
    <inkscape:path-effect
       effect="bspline"
       id="path-effect6215"
       is_visible="true"
       weight="33.333333"
       steps="2"
       helper_size="0"
       apply_no_weight="true"
       apply_with_weight="true"
       only_selected="false" />
    <inkscape:path-effect
       effect="spiro"
       id="path-effect6211"
       is_visible="true" />
    <inkscape:path-effect
       effect="spiro"
       id="path-effect5536"
       is_visible="true" />
    <inkscape:path-effect
       effect="spiro"
       id="path-effect5528"
       is_visible="true" />
    <inkscape:perspective
       sodipodi:type="inkscape:persp3d"
       inkscape:vp_x="0 : 105.00001 : 1"
       inkscape:vp_y="0 : 1000.0001 : 0"
       inkscape:vp_z="297.00001 : 105 : 1"
       inkscape:persp3d-origin="148.5 : 70.000003 : 1"
       id="perspective5502" />
    <inkscape:path-effect
       effect="spiro"
       id="path-effect5330"
       is_visible="true" />
    <inkscape:path-effect
       effect="spiro"
       id="path-effect5326"
       is_visible="true" />
    <inkscape:path-effect
       effect="spiro"
       id="path-effect5322"
       is_visible="true" />
    <inkscape:path-effect
       effect="spiro"
       id="path-effect5318"
       is_visible="true" />
    <inkscape:path-effect
       effect="spiro"
       id="path-effect5314"
       is_visible="true" />
    <inkscape:path-effect
       effect="spiro"
       id="path-effect5310"
       is_visible="true" />
    <inkscape:path-effect
       effect="spiro"
       id="path-effect5306"
       is_visible="true" />
    <inkscape:path-effect
       effect="spiro"
       id="path-effect5294"
       is_visible="true" />
    <inkscape:path-effect
       effect="bspline"
       id="path-effect5290"
       is_visible="true"
       weight="33.333333"
       steps="2"
       helper_size="0"
       apply_no_weight="true"
       apply_with_weight="true"
       only_selected="false" />
    <inkscape:path-effect
       effect="bspline"
       id="path-effect5278"
       is_visible="true"
       weight="33.333333"
       steps="2"
       helper_size="0"
       apply_no_weight="true"
       apply_with_weight="true"
       only_selected="false" />
    <marker
       inkscape:stockid="Arrow1Lend"
       orient="auto"
       refY="0"
       refX="0"
       id="marker1137"
       style="overflow:visible"
       inkscape:isstock="true">
      <path
         id="path1135"
         d="M 0,0 5,-5 -12.5,0 5,5 Z"
         style="fill:#000000;fill-opacity:1;fill-rule:evenodd;stroke:#000000;stroke-width:1.00000003pt;stroke-opacity:1"
         transform="matrix(-0.8,0,0,-0.8,-10,0)"
         inkscape:connector-curvature="0" />
    </marker>
    <marker
       inkscape:stockid="Arrow1Lend"
       orient="auto"
       refY="0"
       refX="0"
       id="Arrow1Lend"
       style="overflow:visible"
       inkscape:isstock="true">
      <path
         id="path836"
         d="M 0,0 5,-5 -12.5,0 5,5 Z"
         style="fill:#000000;fill-opacity:1;fill-rule:evenodd;stroke:#000000;stroke-width:1.00000003pt;stroke-opacity:1"
         transform="matrix(-0.8,0,0,-0.8,-10,0)"
         inkscape:connector-curvature="0" />
    </marker>
    <inkscape:path-effect
       effect="bspline"
       id="path-effect26"
       is_visible="true"
       weight="33.333333"
       steps="2"
       helper_size="0"
       apply_no_weight="true"
       apply_with_weight="true"
       only_selected="false" />
    <inkscape:path-effect
       effect="bspline"
       id="path-effect20"
       is_visible="true"
       weight="33.333333"
       steps="2"
       helper_size="0"
       apply_no_weight="true"
       apply_with_weight="true"
       only_selected="false" />
    <marker
       inkscape:stockid="Arrow1Lend"
       orient="auto"
       refY="0"
       refX="0"
       id="marker1137-8"
       style="overflow:visible"
       inkscape:isstock="true">
      <path
         inkscape:connector-curvature="0"
         id="path1135-0"
         d="M 0,0 5,-5 -12.5,0 5,5 Z"
         style="fill:#000000;fill-opacity:1;fill-rule:evenodd;stroke:#000000;stroke-width:1.00000003pt;stroke-opacity:1"
         transform="matrix(-0.8,0,0,-0.8,-10,0)" />
    </marker>
    <inkscape:path-effect
       effect="bspline"
       id="path-effect26-2"
       is_visible="true"
       weight="33.333333"
       steps="2"
       helper_size="0"
       apply_no_weight="true"
       apply_with_weight="true"
       only_selected="false" />
    <marker
       inkscape:stockid="Arrow1Lend"
       orient="auto"
       refY="0"
       refX="0"
       id="Arrow1Lend-8"
       style="overflow:visible"
       inkscape:isstock="true">
      <path
         inkscape:connector-curvature="0"
         id="path836-5"
         d="M 0,0 5,-5 -12.5,0 5,5 Z"
         style="fill:#000000;fill-opacity:1;fill-rule:evenodd;stroke:#000000;stroke-width:1.00000003pt;stroke-opacity:1"
         transform="matrix(-0.8,0,0,-0.8,-10,0)" />
    </marker>
    <inkscape:path-effect
       effect="bspline"
       id="path-effect20-0"
       is_visible="true"
       weight="33.333333"
       steps="2"
       helper_size="0"
       apply_no_weight="true"
       apply_with_weight="true"
       only_selected="false" />
    <inkscape:path-effect
       effect="spiro"
       id="path-effect5326-7"
       is_visible="true" />
    <inkscape:path-effect
       effect="spiro"
       id="path-effect5326-78"
       is_visible="true" />
    <inkscape:path-effect
       effect="spiro"
       id="path-effect5326-7-8"
       is_visible="true" />
    <marker
       inkscape:stockid="Arrow1Lend"
       orient="auto"
       refY="0"
       refX="0"
       id="marker1137-3"
       style="overflow:visible"
       inkscape:isstock="true">
      <path
         inkscape:connector-curvature="0"
         id="path1135-7"
         d="M 0,0 5,-5 -12.5,0 5,5 Z"
         style="fill:#000000;fill-opacity:1;fill-rule:evenodd;stroke:#000000;stroke-width:1.00000003pt;stroke-opacity:1"
         transform="matrix(-0.8,0,0,-0.8,-10,0)" />
    </marker>
    <inkscape:path-effect
       effect="bspline"
       id="path-effect26-6"
       is_visible="true"
       weight="33.333333"
       steps="2"
       helper_size="0"
       apply_no_weight="true"
       apply_with_weight="true"
       only_selected="false" />
    <marker
       inkscape:stockid="Arrow1Lend"
       orient="auto"
       refY="0"
       refX="0"
       id="Arrow1Lend-5"
       style="overflow:visible"
       inkscape:isstock="true">
      <path
         inkscape:connector-curvature="0"
         id="path836-1"
         d="M 0,0 5,-5 -12.5,0 5,5 Z"
         style="fill:#000000;fill-opacity:1;fill-rule:evenodd;stroke:#000000;stroke-width:1.00000003pt;stroke-opacity:1"
         transform="matrix(-0.8,0,0,-0.8,-10,0)" />
    </marker>
    <inkscape:path-effect
       effect="bspline"
       id="path-effect20-4"
       is_visible="true"
       weight="33.333333"
       steps="2"
       helper_size="0"
       apply_no_weight="true"
       apply_with_weight="true"
       only_selected="false" />
    <inkscape:path-effect
       effect="spiro"
       id="path-effect5528-0"
       is_visible="true" />
    <inkscape:path-effect
       effect="spiro"
       id="path-effect5536-6"
       is_visible="true" />
    <inkscape:path-effect
       effect="spiro"
       id="path-effect5528-0-9"
       is_visible="true" />
    <inkscape:path-effect
       effect="spiro"
       id="path-effect5536-6-4"
       is_visible="true" />
    <inkscape:path-effect
       effect="spiro"
       id="path-effect5528-0-9-4"
       is_visible="true" />
    <inkscape:path-effect
       effect="spiro"
       id="path-effect5536-6-4-7"
       is_visible="true" />
    <marker
       inkscape:stockid="Arrow1Lend"
       orient="auto"
       refY="0"
       refX="0"
       id="marker1137-3-7"
       style="overflow:visible"
       inkscape:isstock="true">
      <path
         inkscape:connector-curvature="0"
         id="path1135-7-1"
         d="M 0,0 5,-5 -12.5,0 5,5 Z"
         style="fill:#000000;fill-opacity:1;fill-rule:evenodd;stroke:#000000;stroke-width:1.00000003pt;stroke-opacity:1"
         transform="matrix(-0.8,0,0,-0.8,-10,0)" />
    </marker>
    <inkscape:path-effect
       effect="bspline"
       id="path-effect26-6-3"
       is_visible="true"
       weight="33.333333"
       steps="2"
       helper_size="0"
       apply_no_weight="true"
       apply_with_weight="true"
       only_selected="false" />
    <marker
       inkscape:stockid="Arrow1Lend"
       orient="auto"
       refY="0"
       refX="0"
       id="Arrow1Lend-5-6"
       style="overflow:visible"
       inkscape:isstock="true">
      <path
         inkscape:connector-curvature="0"
         id="path836-1-0"
         d="M 0,0 5,-5 -12.5,0 5,5 Z"
         style="fill:#000000;fill-opacity:1;fill-rule:evenodd;stroke:#000000;stroke-width:1.00000003pt;stroke-opacity:1"
         transform="matrix(-0.8,0,0,-0.8,-10,0)" />
    </marker>
    <inkscape:path-effect
       effect="bspline"
       id="path-effect20-4-5"
       is_visible="true"
       weight="33.333333"
       steps="2"
       helper_size="0"
       apply_no_weight="true"
       apply_with_weight="true"
       only_selected="false" />
    <clipPath
       clipPathUnits="userSpaceOnUse"
       id="clipPath2025">
      <rect
         style="fill:none;fill-opacity:1;stroke:#008000;stroke-width:0.26250967;stroke-miterlimit:4;stroke-dasharray:none"
         id="rect2027"
         width="54.291504"
         height="47.926296"
         x="29.687981"
         y="34.084568" />
    </clipPath>
    <clipPath
       clipPathUnits="userSpaceOnUse"
       id="clipPath6123">
      <rect
         style="fill:none;fill-rule:evenodd;stroke-width:0.26458332"
         id="rect6125"
         width="24.185362"
         height="19.950571"
         x="318.36215"
         y="247.21768" />
    </clipPath>
    <clipPath
       clipPathUnits="userSpaceOnUse"
       id="clipPath6144">
      <rect
         style="fill:none;fill-rule:evenodd;stroke-width:0.26458332"
         id="rect6146"
         width="12.139733"
         height="10.963404"
         x="393.2709"
         y="309.89261" />
    </clipPath>
    <clipPath
       clipPathUnits="userSpaceOnUse"
       id="clipPath6154">
      <path
         style="fill:#ff00ff;stroke:none;stroke-width:0.26458332px;stroke-linecap:butt;stroke-linejoin:miter;stroke-opacity:1"
         d="m 341.38022,292.71347 c -2.48866,5.76725 -0.94333,10.44422 3.12554,14.43916 4.09194,5.96927 8.09089,12.02288 19.6212,11.24571 3.81131,0.45473 7.62262,0.47961 11.43393,0.0471 3.51717,1.02721 6.55671,1.09914 8.6578,-0.7058 2.43177,0.18026 5.63719,0.23156 9.12832,0.23527 l 7.71674,1.92918 -1.27044,-1.03518 1.88213,0.0471 -2.02329,-1.36455 1.27043,0.14115 -1.27043,-1.27043 1.88213,-0.56464 c -2.75056,-1.35926 -5.67584,-1.86019 -8.51664,-2.77614 -8.53771,-3.94839 -14.82173,-9.74734 -21.8327,-13.88079 -7.83239,-3.31518 -14.8391,-4.89206 -20.98574,-4.65828 0.54743,-1.74823 0.83187,-3.84711 0.84696,-6.30513 -1.72571,-6.32498 -7.35966,-5.06046 -7.96578,-4.87808 -0.95203,0.15508 -3.65409,1.58047 -4.03279,3.7488 -7.70201,2.24594 -15.46933,4.43598 -18.77424,10.44583 l -0.23527,0.94107 c 0.84063,-0.1553 3.46008,-3.42303 8.02025,-5.6766 3.13792,-1.55072 7.68528,-2.23586 11.22452,-2.65184 1.10755,0.61564 2.20335,1.23799 2.09737,2.54707 z"
         id="path6156"
         inkscape:connector-curvature="0"
         sodipodi:nodetypes="cccccccccccccccccccccccc"
         clip-path="url(#clipPath6144)"
         transform="translate(3.1812735,-57.504619)" />
    </clipPath>
    <clipPath
       clipPathUnits="userSpaceOnUse"
       id="clipPath6162">
      <rect
         style="fill:#ffffff;fill-rule:evenodd;stroke:#e6e6e6;stroke-width:0.26458332"
         id="rect6164"
         width="11.977798"
         height="10.646931"
         x="410.83841"
         y="240.97052" />
    </clipPath>
    <clipPath
       clipPathUnits="userSpaceOnUse"
       id="clipPath6189">
      <path
         style="fill:#000000;stroke:#000000;stroke-width:0.26458332px;stroke-linecap:butt;stroke-linejoin:miter;stroke-opacity:1"
         d="m 354.49042,224.78454 c -2.48866,5.76724 -0.94333,10.44421 3.12554,14.43915 4.09194,5.96927 8.09089,12.02288 19.6212,11.24572 3.81131,0.45472 7.62262,0.47961 11.43393,0.0471 3.51717,1.02721 6.55671,1.09914 8.6578,-0.7058 2.43177,0.18026 5.0255,-0.56833 8.51663,-0.56463 5.1562,-1.20794 5.5457,-1.38098 7.49937,-1.234 l 2.01697,-0.89784 3.23667,-1.26451 1.43979,-0.0347 -0.52182,-0.65088 1.52115,-0.90335 -3.61559,0.20621 -2.25478,0.57861 c -4.70289,1.75602 -7.51853,0.53269 -9.03944,0.10687 -8.53771,-3.94839 -14.82173,-9.74734 -21.8327,-13.88079 -7.83239,-3.31517 -14.8391,-4.89205 -20.98574,-4.65827 0.54743,-1.74823 0.83187,-3.84711 0.84696,-6.30513 -1.72571,-6.32498 -7.35966,-5.06046 -7.96578,-4.87808 -0.95203,0.15508 -3.65409,1.58047 -4.03279,3.7488 -7.70201,2.24594 -15.46933,4.43598 -18.77424,10.44582 l -0.23527,0.94107 c 0.84063,-0.1553 3.46008,-3.42302 8.02025,-5.67659 3.13792,-1.55072 7.68528,-2.23586 11.22452,-2.65184 1.10755,0.61564 2.20335,1.23799 2.09737,2.54707 z"
         id="path6191"
         inkscape:connector-curvature="0"
         sodipodi:nodetypes="cccccccccccccccccccccccccc"
         clip-path="url(#clipPath6162)"
         transform="matrix(1.1276265,0,0,1,-39.194444,-10.61878)" />
    </clipPath>
    <clipPath
       clipPathUnits="userSpaceOnUse"
       id="clipPath6195">
      <path
         style="fill:#008000;stroke:none;stroke-width:0.26458332px;stroke-linecap:butt;stroke-linejoin:miter;stroke-opacity:1"
         d="m 345.21595,258.21835 c -2.48866,5.76724 -0.94333,10.44421 3.12554,14.43915 4.09194,5.96927 8.09089,12.02288 19.6212,11.24571 3.81131,0.45473 7.62262,0.47961 11.43393,0.0471 3.51717,1.02721 6.55671,1.09914 8.6578,-0.7058 2.43177,0.18026 5.63719,0.23156 9.12832,0.23527 l 7.71674,1.92918 -1.27044,-1.03518 1.88213,0.0471 -2.02329,-1.36455 1.27043,0.14115 -1.27043,-1.27043 1.88213,-0.56464 c -2.75056,-1.35926 -5.67584,-1.86019 -8.51664,-2.77614 -8.53771,-3.94839 -14.82173,-9.74734 -21.8327,-13.88079 -7.83239,-3.31517 -14.8391,-4.89205 -20.98574,-4.65827 0.54743,-1.74823 0.83187,-3.84711 0.84696,-6.30513 -1.72571,-6.32498 -7.35966,-5.06046 -7.96578,-4.87808 -0.95203,0.15508 -3.65409,1.58047 -4.03279,3.7488 -7.70201,2.24594 -15.46933,4.43598 -18.77424,10.44582 l -0.23527,0.94107 c 0.84063,-0.1553 3.46008,-3.42302 8.02025,-5.67659 3.13792,-1.55072 7.68528,-2.23586 11.22452,-2.65184 1.10755,0.61564 2.20335,1.23799 2.09737,2.54707 z"
         id="path6197"
         inkscape:connector-curvature="0"
         sodipodi:nodetypes="cccccccccccccccccccccccc"
         clip-path="url(#clipPath6123)"
         transform="translate(2.6201381,29.649277)" />
    </clipPath>
    <clipPath
       clipPathUnits="userSpaceOnUse"
       id="clipPath6201">
      <rect
         style="fill:#0000ff;fill-rule:evenodd;stroke-width:0.26458332"
         id="rect6203"
         width="33.804005"
         height="22.624729"
         x="319.40793"
         y="276.77081"
         clip-path="url(#clipPath6195)"
         transform="translate(-22.502526,-39.55645)" />
    </clipPath>
    <clipPath
       clipPathUnits="userSpaceOnUse"
       id="clipPath6277">
      <path
         style="fill:#000000;stroke:#000000;stroke-width:0.26458332px;stroke-linecap:butt;stroke-linejoin:miter;stroke-opacity:1"
         d="m 354.49042,224.78454 c -2.48865,5.76724 -0.94332,10.44421 3.12555,14.43915 4.09194,5.96927 8.09088,12.02288 19.62118,11.24572 3.81132,0.45472 7.62262,0.47961 11.43394,0.0471 3.51716,1.02721 6.55672,1.09914 8.6578,-0.7058 2.43176,0.18026 5.0255,-0.56833 8.51662,-0.56463 5.1562,-1.20794 5.54572,-1.38098 7.49938,-1.234 l 2.01697,-0.89784 3.23668,-1.26451 1.43978,-0.0347 -0.52181,-0.65088 1.52114,-0.90335 -3.61558,0.20621 -2.25478,0.57861 c -4.70289,1.75602 -7.51854,0.53269 -9.03944,0.10687 -8.53771,-3.94839 -14.82175,-9.74734 -21.8327,-13.88079 -7.83241,-3.31517 -14.83911,-4.89205 -20.98575,-4.65827 0.54743,-1.74823 0.83188,-3.84711 0.84696,-6.30513 -1.72572,-6.32498 -7.35965,-5.06046 -7.96578,-4.87808 -0.95203,0.15508 -3.65408,1.58047 -4.03278,3.7488 -7.70202,2.24594 -15.46934,4.43598 -18.77425,10.44582 l -0.23527,0.94107 c 0.84063,-0.1553 3.46009,-3.42302 8.02026,-5.67659 3.13791,-1.55072 7.68527,-2.23586 11.2245,-2.65184 1.10757,0.61564 2.20337,1.23799 2.09738,2.54707 z"
         id="path6279"
         inkscape:connector-curvature="0"
         sodipodi:nodetypes="cccccccccccccccccccccccccc" />
    </clipPath>
    <clipPath
       clipPathUnits="userSpaceOnUse"
       id="clipPath6396">
      <rect
         style="fill:#000000;fill-rule:evenodd;stroke-width:0.54091132"
         id="rect6398"
         width="69.870689"
         height="43.114731"
         x="351.88672"
         y="212.59792"
         clip-path="url(#clipPath6277)" />
    </clipPath>
    <clipPath
       clipPathUnits="userSpaceOnUse"
       id="clipPath6189-7">
      <path
         style="fill:#000000;stroke:#000000;stroke-width:0.26458332px;stroke-linecap:butt;stroke-linejoin:miter;stroke-opacity:1"
         d="m 354.49042,224.78454 c -2.48866,5.76724 -0.94333,10.44421 3.12554,14.43915 4.09194,5.96927 8.09089,12.02288 19.6212,11.24572 3.81131,0.45472 7.62262,0.47961 11.43393,0.0471 3.51717,1.02721 6.55671,1.09914 8.6578,-0.7058 2.43177,0.18026 5.0255,-0.56833 8.51663,-0.56463 5.1562,-1.20794 5.5457,-1.38098 7.49937,-1.234 l 2.01697,-0.89784 3.23667,-1.26451 1.43979,-0.0347 -0.52182,-0.65088 1.52115,-0.90335 -3.61559,0.20621 -2.25478,0.57861 c -4.70289,1.75602 -7.51853,0.53269 -9.03944,0.10687 -8.53771,-3.94839 -14.82173,-9.74734 -21.8327,-13.88079 -7.83239,-3.31517 -14.8391,-4.89205 -20.98574,-4.65827 0.54743,-1.74823 0.83187,-3.84711 0.84696,-6.30513 -1.72571,-6.32498 -7.35966,-5.06046 -7.96578,-4.87808 -0.95203,0.15508 -3.65409,1.58047 -4.03279,3.7488 -7.70201,2.24594 -15.46933,4.43598 -18.77424,10.44582 l -0.23527,0.94107 c 0.84063,-0.1553 3.46008,-3.42302 8.02025,-5.67659 3.13792,-1.55072 7.68528,-2.23586 11.22452,-2.65184 1.10755,0.61564 2.20335,1.23799 2.09737,2.54707 z"
         id="path6191-8"
         inkscape:connector-curvature="0"
         sodipodi:nodetypes="cccccccccccccccccccccccccc"
         clip-path="url(#clipPath6162)"
         transform="matrix(1.1276265,0,0,1,-39.194444,-10.61878)" />
    </clipPath>
    <clipPath
       clipPathUnits="userSpaceOnUse"
       id="clipPath6201-8">
      <rect
         style="fill:#0000ff;fill-rule:evenodd;stroke-width:0.26458332"
         id="rect6203-2"
         width="33.804005"
         height="22.624729"
         x="319.40793"
         y="276.77081"
         clip-path="url(#clipPath6195)"
         transform="translate(-22.502526,-39.55645)" />
    </clipPath>
    <clipPath
       clipPathUnits="userSpaceOnUse"
       id="clipPath6396-3">
      <rect
         style="fill:#000000;fill-rule:evenodd;stroke-width:0.54091132"
         id="rect6398-5"
         width="69.870689"
         height="43.114731"
         x="351.88672"
         y="212.59792"
         clip-path="url(#clipPath6277)" />
    </clipPath>
    <clipPath
       clipPathUnits="userSpaceOnUse"
       id="clipPath6189-7-5">
      <path
         style="fill:#000000;stroke:#000000;stroke-width:0.26458332px;stroke-linecap:butt;stroke-linejoin:miter;stroke-opacity:1"
         d="m 354.49042,224.78454 c -2.48866,5.76724 -0.94333,10.44421 3.12554,14.43915 4.09194,5.96927 8.09089,12.02288 19.6212,11.24572 3.81131,0.45472 7.62262,0.47961 11.43393,0.0471 3.51717,1.02721 6.55671,1.09914 8.6578,-0.7058 2.43177,0.18026 5.0255,-0.56833 8.51663,-0.56463 5.1562,-1.20794 5.5457,-1.38098 7.49937,-1.234 l 2.01697,-0.89784 3.23667,-1.26451 1.43979,-0.0347 -0.52182,-0.65088 1.52115,-0.90335 -3.61559,0.20621 -2.25478,0.57861 c -4.70289,1.75602 -7.51853,0.53269 -9.03944,0.10687 -8.53771,-3.94839 -14.82173,-9.74734 -21.8327,-13.88079 -7.83239,-3.31517 -14.8391,-4.89205 -20.98574,-4.65827 0.54743,-1.74823 0.83187,-3.84711 0.84696,-6.30513 -1.72571,-6.32498 -7.35966,-5.06046 -7.96578,-4.87808 -0.95203,0.15508 -3.65409,1.58047 -4.03279,3.7488 -7.70201,2.24594 -15.46933,4.43598 -18.77424,10.44582 l -0.23527,0.94107 c 0.84063,-0.1553 3.46008,-3.42302 8.02025,-5.67659 3.13792,-1.55072 7.68528,-2.23586 11.22452,-2.65184 1.10755,0.61564 2.20335,1.23799 2.09737,2.54707 z"
         id="path6191-8-4"
         inkscape:connector-curvature="0"
         sodipodi:nodetypes="cccccccccccccccccccccccccc"
         clip-path="url(#clipPath6162)"
         transform="matrix(1.1276265,0,0,1,-39.194444,-10.61878)" />
    </clipPath>
    <clipPath
       clipPathUnits="userSpaceOnUse"
       id="clipPath6201-8-5">
      <rect
         style="fill:#0000ff;fill-rule:evenodd;stroke-width:0.26458332"
         id="rect6203-2-1"
         width="33.804005"
         height="22.624729"
         x="319.40793"
         y="276.77081"
         clip-path="url(#clipPath6195)"
         transform="translate(-22.502526,-39.55645)" />
    </clipPath>
    <clipPath
       clipPathUnits="userSpaceOnUse"
       id="clipPath6396-3-1">
      <rect
         style="fill:#000000;fill-rule:evenodd;stroke-width:0.54091132"
         id="rect6398-5-2"
         width="69.870689"
         height="43.114731"
         x="351.88672"
         y="212.59792"
         clip-path="url(#clipPath6277)" />
    </clipPath>
    <clipPath
       clipPathUnits="userSpaceOnUse"
       id="clipPath6189-9">
      <path
         style="fill:#000000;stroke:#000000;stroke-width:0.26458332px;stroke-linecap:butt;stroke-linejoin:miter;stroke-opacity:1"
         d="m 354.49042,224.78454 c -2.48866,5.76724 -0.94333,10.44421 3.12554,14.43915 4.09194,5.96927 8.09089,12.02288 19.6212,11.24572 3.81131,0.45472 7.62262,0.47961 11.43393,0.0471 3.51717,1.02721 6.55671,1.09914 8.6578,-0.7058 2.43177,0.18026 5.0255,-0.56833 8.51663,-0.56463 5.1562,-1.20794 5.5457,-1.38098 7.49937,-1.234 l 2.01697,-0.89784 3.23667,-1.26451 1.43979,-0.0347 -0.52182,-0.65088 1.52115,-0.90335 -3.61559,0.20621 -2.25478,0.57861 c -4.70289,1.75602 -7.51853,0.53269 -9.03944,0.10687 -8.53771,-3.94839 -14.82173,-9.74734 -21.8327,-13.88079 -7.83239,-3.31517 -14.8391,-4.89205 -20.98574,-4.65827 0.54743,-1.74823 0.83187,-3.84711 0.84696,-6.30513 -1.72571,-6.32498 -7.35966,-5.06046 -7.96578,-4.87808 -0.95203,0.15508 -3.65409,1.58047 -4.03279,3.7488 -7.70201,2.24594 -15.46933,4.43598 -18.77424,10.44582 l -0.23527,0.94107 c 0.84063,-0.1553 3.46008,-3.42302 8.02025,-5.67659 3.13792,-1.55072 7.68528,-2.23586 11.22452,-2.65184 1.10755,0.61564 2.20335,1.23799 2.09737,2.54707 z"
         id="path6191-2"
         inkscape:connector-curvature="0"
         sodipodi:nodetypes="cccccccccccccccccccccccccc"
         clip-path="url(#clipPath6162)"
         transform="matrix(1.1276265,0,0,1,-39.194444,-10.61878)" />
    </clipPath>
    <clipPath
       clipPathUnits="userSpaceOnUse"
       id="clipPath6201-6">
      <rect
         style="fill:#0000ff;fill-rule:evenodd;stroke-width:0.26458332"
         id="rect6203-21"
         width="33.804005"
         height="22.624729"
         x="319.40793"
         y="276.77081"
         clip-path="url(#clipPath6195)"
         transform="translate(-22.502526,-39.55645)" />
    </clipPath>
    <clipPath
       clipPathUnits="userSpaceOnUse"
       id="clipPath6396-34">
      <rect
         style="fill:#000000;fill-rule:evenodd;stroke-width:0.54091132"
         id="rect6398-0"
         width="69.870689"
         height="43.114731"
         x="351.88672"
         y="212.59792"
         clip-path="url(#clipPath6277)" />
    </clipPath>
    <clipPath
       clipPathUnits="userSpaceOnUse"
       id="clipPath8564">
      <g
         id="g8572"
         transform="translate(-68.542268,-6.4467693)">
        <ellipse
           ry="4.9683485"
           rx="5.2386699"
           cy="166.21701"
           cx="43.093925"
           id="ellipse8566"
           style="opacity:1;vector-effect:none;fill:#000000;fill-opacity:1;fill-rule:evenodd;stroke:#000000;stroke-width:0.06330302;stroke-linecap:butt;stroke-linejoin:miter;stroke-miterlimit:4;stroke-dasharray:none;stroke-dashoffset:0;stroke-opacity:1" />
        <ellipse
           ry="4.9683485"
           rx="5.2386699"
           cy="166.21701"
           cx="81.724419"
           id="ellipse8568"
           style="opacity:1;vector-effect:none;fill:#000000;fill-opacity:1;fill-rule:evenodd;stroke:#000000;stroke-width:0.06330302;stroke-linecap:butt;stroke-linejoin:miter;stroke-miterlimit:4;stroke-dasharray:none;stroke-dashoffset:0;stroke-opacity:1" />
        <rect
           y="161.22964"
           x="43.248856"
           height="10"
           width="38.261063"
           id="rect8570"
           style="fill:#000000;fill-rule:evenodd;stroke:none;stroke-width:0.26083475" />
      </g>
    </clipPath>
    <clipPath
       clipPathUnits="userSpaceOnUse"
       id="clipPath6201-2">
      <rect
         style="fill:#0000ff;fill-rule:evenodd;stroke-width:0.26458332"
         id="rect6203-3"
         width="33.804005"
         height="22.624729"
         x="319.40793"
         y="276.77081"
         clip-path="url(#clipPath6195)"
         transform="translate(-22.502526,-39.55645)" />
    </clipPath>
    <clipPath
       clipPathUnits="userSpaceOnUse"
       id="clipPath6189-2">
      <path
         style="fill:#000000;stroke:#000000;stroke-width:0.26458332px;stroke-linecap:butt;stroke-linejoin:miter;stroke-opacity:1"
         d="m 354.49042,224.78454 c -2.48866,5.76724 -0.94333,10.44421 3.12554,14.43915 4.09194,5.96927 8.09089,12.02288 19.6212,11.24572 3.81131,0.45472 7.62262,0.47961 11.43393,0.0471 3.51717,1.02721 6.55671,1.09914 8.6578,-0.7058 2.43177,0.18026 5.0255,-0.56833 8.51663,-0.56463 5.1562,-1.20794 5.5457,-1.38098 7.49937,-1.234 l 2.01697,-0.89784 3.23667,-1.26451 1.43979,-0.0347 -0.52182,-0.65088 1.52115,-0.90335 -3.61559,0.20621 -2.25478,0.57861 c -4.70289,1.75602 -7.51853,0.53269 -9.03944,0.10687 -8.53771,-3.94839 -14.82173,-9.74734 -21.8327,-13.88079 -7.83239,-3.31517 -14.8391,-4.89205 -20.98574,-4.65827 0.54743,-1.74823 0.83187,-3.84711 0.84696,-6.30513 -1.72571,-6.32498 -7.35966,-5.06046 -7.96578,-4.87808 -0.95203,0.15508 -3.65409,1.58047 -4.03279,3.7488 -7.70201,2.24594 -15.46933,4.43598 -18.77424,10.44582 l -0.23527,0.94107 c 0.84063,-0.1553 3.46008,-3.42302 8.02025,-5.67659 3.13792,-1.55072 7.68528,-2.23586 11.22452,-2.65184 1.10755,0.61564 2.20335,1.23799 2.09737,2.54707 z"
         id="path6191-9"
         inkscape:connector-curvature="0"
         sodipodi:nodetypes="cccccccccccccccccccccccccc"
         clip-path="url(#clipPath6162)"
         transform="matrix(1.1276265,0,0,1,-39.194444,-10.61878)" />
    </clipPath>
    <clipPath
       clipPathUnits="userSpaceOnUse"
       id="clipPath6189-7-50">
      <path
         style="fill:#000000;stroke:#000000;stroke-width:0.26458332px;stroke-linecap:butt;stroke-linejoin:miter;stroke-opacity:1"
         d="m 354.49042,224.78454 c -2.48866,5.76724 -0.94333,10.44421 3.12554,14.43915 4.09194,5.96927 8.09089,12.02288 19.6212,11.24572 3.81131,0.45472 7.62262,0.47961 11.43393,0.0471 3.51717,1.02721 6.55671,1.09914 8.6578,-0.7058 2.43177,0.18026 5.0255,-0.56833 8.51663,-0.56463 5.1562,-1.20794 5.5457,-1.38098 7.49937,-1.234 l 2.01697,-0.89784 3.23667,-1.26451 1.43979,-0.0347 -0.52182,-0.65088 1.52115,-0.90335 -3.61559,0.20621 -2.25478,0.57861 c -4.70289,1.75602 -7.51853,0.53269 -9.03944,0.10687 -8.53771,-3.94839 -14.82173,-9.74734 -21.8327,-13.88079 -7.83239,-3.31517 -14.8391,-4.89205 -20.98574,-4.65827 0.54743,-1.74823 0.83187,-3.84711 0.84696,-6.30513 -1.72571,-6.32498 -7.35966,-5.06046 -7.96578,-4.87808 -0.95203,0.15508 -3.65409,1.58047 -4.03279,3.7488 -7.70201,2.24594 -15.46933,4.43598 -18.77424,10.44582 l -0.23527,0.94107 c 0.84063,-0.1553 3.46008,-3.42302 8.02025,-5.67659 3.13792,-1.55072 7.68528,-2.23586 11.22452,-2.65184 1.10755,0.61564 2.20335,1.23799 2.09737,2.54707 z"
         id="path6191-8-1"
         inkscape:connector-curvature="0"
         sodipodi:nodetypes="cccccccccccccccccccccccccc"
         clip-path="url(#clipPath6162)"
         transform="matrix(1.1276265,0,0,1,-39.194444,-10.61878)" />
    </clipPath>
    <clipPath
       clipPathUnits="userSpaceOnUse"
       id="clipPath6201-8-6">
      <rect
         style="fill:#0000ff;fill-rule:evenodd;stroke-width:0.26458332"
         id="rect6203-2-5"
         width="33.804005"
         height="22.624729"
         x="319.40793"
         y="276.77081"
         clip-path="url(#clipPath6195)"
         transform="translate(-22.502526,-39.55645)" />
    </clipPath>
    <clipPath
       clipPathUnits="userSpaceOnUse"
       id="clipPath6396-3-7">
      <rect
         style="fill:#000000;fill-rule:evenodd;stroke-width:0.54091132"
         id="rect6398-5-0"
         width="69.870689"
         height="43.114731"
         x="351.88672"
         y="212.59792"
         clip-path="url(#clipPath6277)" />
    </clipPath>
  </defs>
  <sodipodi:namedview
     id="base"
     pagecolor="#ffffff"
     bordercolor="#666666"
     borderopacity="1.0"
     inkscape:pageopacity="0.0"
     inkscape:pageshadow="2"
     inkscape:zoom="0.088388348"
     inkscape:cx="624.09189"
     inkscape:cy="3221.4602"
     inkscape:document-units="mm"
     inkscape:current-layer="layer1"
     showgrid="false"
     inkscape:window-width="1280"
     inkscape:window-height="961"
     inkscape:window-x="892"
     inkscape:window-y="313"
     inkscape:window-maximized="1"
     inkscape:snap-global="false"
     fit-margin-top="110"
     fit-margin-left="110"
     fit-margin-right="110"
     fit-margin-bottom="110"
     showguides="true"
     inkscape:guide-bbox="true" />
  <metadata
     id="metadata5">
    <rdf:RDF>
      <cc:Work
         rdf:about="">
        <dc:format>image/svg+xml</dc:format>
        <dc:type
           rdf:resource="http://purl.org/dc/dcmitype/StillImage" />
        <dc:title></dc:title>
      </cc:Work>
    </rdf:RDF>
  </metadata>
  <g
     inkscape:label="Layer 1"
     inkscape:groupmode="layer"
     id="layer1"
     transform="translate(191.76821,652.94821)">
    <text
       xml:space="preserve"
       style="font-style:normal;font-weight:normal;font-size:3.35138917px;line-height:100%;font-family:sans-serif;text-align:center;letter-spacing:0px;word-spacing:0px;text-anchor:middle;fill:#000000;fill-opacity:1;stroke:none;stroke-width:0.26458338"
       x="241.69669"
       y="211.10878"
       id="text5826-1"><tspan
         sodipodi:role="line"
         id="tspan5824-4"
         x="241.69669"
         y="213.74744"
         style="stroke-width:0.26458338" /></text>
    <text
       xml:space="preserve"
       style="font-style:normal;font-weight:normal;font-size:3.35138917px;line-height:100%;font-family:sans-serif;text-align:center;letter-spacing:0px;word-spacing:0px;text-anchor:middle;fill:#000000;fill-opacity:1;stroke:none;stroke-width:0.26458338"
       x="281.99857"
       y="186.4576"
       id="text5826-8"><tspan
         sodipodi:role="line"
         id="tspan5824-0"
         x="281.99857"
         y="189.09625"
         style="stroke-width:0.26458338" /></text>
    <flowRoot
       xml:space="preserve"
       id="flowRoot6987"
       style="font-style:normal;font-weight:normal;font-size:12.66666698px;line-height:100%;font-family:sans-serif;text-align:center;letter-spacing:0px;word-spacing:0px;text-anchor:middle;fill:#000000;fill-opacity:1;stroke:none"><flowRegion
         id="flowRegion6989"><rect
           id="rect6991"
           width="483"
           height="294"
           x="-45"
           y="-47.299194" /></flowRegion><flowPara
         id="flowPara6993" /></flowRoot>    <g
       id="g138"
       transform="matrix(2.7428929,0,0,2.7428929,-585.8943,-794.29578)"
       style="stroke-width:0.36457857"
       inkscape:export-xdpi="96"
       inkscape:export-ydpi="96">
      <path
         sodipodi:nodetypes="cccscsccccccccccccccccccccccccc"
         inkscape:connector-curvature="0"
         id="path132"
         d="m 392.91759,284.52144 c 0.25019,0.61016 0.068,1.15222 1.22703,1.90503 -0.39431,3.39011 -1.23089,6.64697 -1.9697,9.93332 -0.67451,0.79971 -1.59837,1.54836 -2.43575,1.8392 -1.64059,0.56983 -3.43054,0.12777 -5.73353,0.0852 -0.38253,0.0763 -0.95536,0.21793 -1.347,0.27435 -1.0685,0.15432 -1.93343,0.2738 -2.62466,1.2614 0.83728,-0.30587 1.62371,-1.0922 2.51858,-0.85529 -0.0584,0.17202 -0.0321,0.22678 1.25126,0.0166 0.48325,-0.18917 1.06401,-0.1676 1.52567,0.0824 0.48485,0.2904 1.18862,0.46518 2.55088,0.2915 -1.28892,0.43808 -3.15827,0.58466 -4.771,0.86006 -1.13424,0.55091 -2.03774,1.01908 -2.68793,1.56983 0.89728,-0.31363 2.25853,-1.20405 2.26812,-0.41595 1.31945,-0.19415 2.1458,-1.00719 4.18976,-0.36286 1.25741,-0.14768 2.53534,-0.36506 3.97283,-1.1271 0.38092,-0.0498 0.3552,0.68051 0.45699,1.16831 0.30967,0.2738 0.47254,0.57725 1.11877,0.78356 0.27002,-0.31251 0.33645,-0.65501 0.36538,-1.00342 0.1259,-1.16052 -0.0321,-1.06759 -0.0686,-1.51203 0.92697,-0.1145 1.95202,-0.0813 2.53439,-0.71481 l 2.25311,-0.30422 c 0.18109,-0.37059 2.58073,-0.25775 3.04121,0.0443 0.32145,-0.88168 -3.76855,-0.49781 -4.2046,-0.78333 -0.79913,0.14823 -1.8889,-0.0824 -2.68798,0.35566 -0.55778,-1.41877 0.18858,-2.68056 0.457,-3.99994 l 2.10053,-7.69747 c 1.29036,-0.65064 1.12615,-1.30123 1.27863,-1.95187 l 3.6075,-1.48448 -12.17603,-1.89525 z"
         style="fill:#000000;stroke:none;stroke-width:0.05060615;stroke-linecap:butt;stroke-linejoin:miter;stroke-miterlimit:4;stroke-dasharray:none;stroke-opacity:1" />
      <path
         sodipodi:nodetypes="cccscsccccccccccccccccccccccccc"
         inkscape:connector-curvature="0"
         id="path134"
         d="m 404.10987,284.65795 c 0.25019,0.61016 0.068,1.15222 1.22709,1.90503 -0.39432,3.39011 -1.23095,6.64697 -1.96976,9.93337 -0.67446,0.79966 -1.59831,1.54832 -2.43575,1.83915 -1.64053,0.56983 -3.43054,0.12777 -5.73353,0.0852 -0.38253,0.0763 -0.95536,0.21793 -1.34694,0.27435 -1.06856,0.15432 -1.93343,0.27435 -2.62472,1.26141 0.83728,-0.30588 1.62371,-1.09221 2.51858,-0.8553 -0.0584,0.17202 -0.0321,0.22678 1.25126,0.0166 0.48325,-0.18917 1.06401,-0.1676 1.52566,0.0824 0.48486,0.29039 1.18863,0.46518 2.55094,0.29149 -1.28891,0.43808 -3.15832,0.58466 -4.77105,0.86006 -1.13424,0.55091 -2.03768,1.01908 -2.68793,1.56983 0.89728,-0.31362 2.25853,-1.20405 2.26812,-0.41595 1.31945,-0.19415 2.1458,-1.00719 4.18975,-0.36285 1.25742,-0.14769 2.53535,-0.36507 3.97284,-1.12711 0.38092,-0.0498 0.3552,0.68051 0.45699,1.16837 0.30967,0.2738 0.47254,0.57724 1.11882,0.7835 0.27002,-0.31196 0.33645,-0.65501 0.36538,-1.00342 0.12591,-1.16052 -0.0321,-1.06759 -0.068,-1.51203 0.92691,-0.1145 1.95197,-0.0813 2.53433,-0.71475 l 2.25312,-0.30422 c 0.18108,-0.37059 2.58073,-0.25776 3.04121,0.0443 0.32145,-0.88168 -3.76855,-0.49781 -4.2046,-0.78334 -0.79908,0.14824 -1.88886,-0.0824 -2.68799,0.35566 -0.55772,-1.41877 0.18859,-2.68056 0.457,-3.99988 l 2.10053,-7.69752 c 1.29037,-0.65065 1.12616,-1.30123 1.27863,-1.95182 l 3.60756,-1.48454 -10.91396,0.0553 z"
         style="fill:#000000;stroke:none;stroke-width:0.05060615;stroke-linecap:butt;stroke-linejoin:miter;stroke-miterlimit:4;stroke-dasharray:none;stroke-opacity:1" />
      <path
         sodipodi:nodetypes="cscscccccccccc"
         inkscape:connector-curvature="0"
         id="path136"
         d="m 364.48944,227.12001 c 3.44528,-9.98341 17.58151,-6.15973 18.96926,4.3099 0.47617,3.59237 -0.24171,7.24743 -1.39374,10.87115 11.47145,-0.821 23.51805,2.2844 34.75377,8.05925 6.99383,3.59464 14.85816,10.99778 22.33831,16.39457 l 8.36312,4.76558 0.22685,6.83787 c -5.17749,-0.14769 -6.22728,2.39395 -9.641,3.44011 -2.68928,2.88076 -7.50191,3.13262 -14.09295,1.18262 -5.8105,0.75039 -12.09563,0.82838 -19.02056,0 -20.9641,1.27927 -31.23243,-6.94647 -38.55448,-16.18034 -7.75901,-8.04004 -2.10121,-19.40584 1.00612,-27.5768 0.0302,-3.05997 -1.57063,-2.57166 -2.95869,-3.6248 z"
         style="fill:#000000;stroke:none;stroke-width:0.00964614;stroke-linecap:butt;stroke-linejoin:miter;stroke-miterlimit:4;stroke-dasharray:none;stroke-opacity:1" />
    </g>
    <path
       style="fill:#000000;stroke:none;stroke-width:4.40205526px;stroke-linecap:butt;stroke-linejoin:miter;stroke-opacity:1"
       d="m 706.67407,-30.870285 0.004,-20.704309 c -20.95176,10.534902 -53.97885,11.298681 -65.00662,2.030557 l -0.004,18.756059 c 21.65754,-1.854806 43.36365,-3.150595 65.00645,-0.07634 z"
       id="path140"
       inkscape:connector-curvature="0"
       sodipodi:nodetypes="cccccc"
       inkscape:export-xdpi="96"
       inkscape:export-ydpi="96" />
    <path
       style="fill:#000000;stroke:none;stroke-width:0.01322916;stroke-linecap:butt;stroke-linejoin:miter;stroke-miterlimit:4;stroke-dasharray:none;stroke-opacity:1"
       d="m 706.67807,-51.574594 53.37081,-21.874044 -13.30131,13.514732 68.31507,-17.858138 c -10.1139,11.946519 -21.93371,23.315261 -55.92245,27.175902 -5.65594,2.618492 -12.79813,16.832489 -33.37744,19.558581 l -19.08781,0.187582 z"
       id="path144"
       inkscape:connector-curvature="0"
       sodipodi:nodetypes="cccccccc" />
    <path
       sodipodi:nodetypes="cccccccc"
       inkscape:connector-curvature="0"
       id="path150"
       d="m 768.44942,181.42719 182.6111,-74.8432 -45.51113,46.24137 233.74361,-61.102595 c -34.6052,40.875665 -75.0473,79.774425 -191.3416,92.983825 -19.3521,8.95929 -43.7895,57.59327 -114.20272,66.92074 l -65.30998,0.64181 z"
       style="fill:#000000;stroke:none;stroke-width:0.01322916;stroke-linecap:butt;stroke-linejoin:miter;stroke-miterlimit:4;stroke-dasharray:none;stroke-opacity:1"
       inkscape:export-xdpi="96"
       inkscape:export-ydpi="96" />
    <path
       style="fill:#000000;stroke:none;stroke-width:0.26458338px;stroke-linecap:butt;stroke-linejoin:miter;stroke-opacity:1"
       d="m 413.85906,-147.86954 c -14.79106,-4.71708 -40.26492,-4.77283 -69.4342,-2.6014 v -13.95799 c 13.51451,1.05705 64.73116,7.53338 69.439,-6.69794 z"
       id="path162"
       inkscape:connector-curvature="0"
       sodipodi:nodetypes="ccccc"
       inkscape:export-xdpi="96"
       inkscape:export-ydpi="96" />
    <path
       style="fill:#000000;stroke:none;stroke-width:0.06500005;stroke-linecap:butt;stroke-linejoin:miter;stroke-miterlimit:4;stroke-dasharray:none;stroke-opacity:1"
       d="m 265.69395,-170.3215 c -3.58048,0.10158 -6.90738,0.45404 -10.33794,2.53592 -17.30766,4.25537 -26.36757,25.60924 -11.52494,38.52397 -0.70317,-3.98563 -2.46709,-7.50786 -1.4262,-11.92118 4.62473,-0.51129 10.00556,-0.24371 12.64514,-2.78672 1.99859,1.34489 7.4761,0.0151 10.62255,-0.20679 33.13719,-3.75577 53.83614,-4.95682 78.7523,-6.29464 v -13.95799 c -33.2488,-1.67958 -58.90279,-3.21887 -78.73096,-5.89257 z"
       id="path164"
       inkscape:connector-curvature="0"
       sodipodi:nodetypes="cccccccccc" />
    <path
       inkscape:export-ydpi="96"
       inkscape:export-xdpi="96"
       sodipodi:nodetypes="ccccc"
       inkscape:connector-curvature="0"
       id="path166"
       d="M 494.02997,268.26023 C 442.02335,251.67458 352.45509,251.47856 249.89341,259.11349 v -49.07748 c 47.51817,3.71668 227.60028,26.488 244.15344,-23.55053 z"
       style="fill:#000000;stroke:none;stroke-width:0.26458341px;stroke-linecap:butt;stroke-linejoin:miter;stroke-opacity:1" />
    <path
       sodipodi:nodetypes="cccccccccc"
       inkscape:connector-curvature="0"
       id="path168"
       d="m -60.797832,187.20056 c -12.589271,0.35717 -24.286931,1.59645 -36.349081,8.91651 -60.855197,14.96225 -92.710607,90.04427 -40.522667,135.45356 -2.4724,-14.01382 -8.67449,-26.39828 -5.01464,-41.91589 16.26095,-1.79774 35.1804,-0.8569 44.461387,-9.79834 7.02721,4.72875 26.28661,0.0531 37.349792,-0.72709 C 55.640137,265.9237 128.4194,261.70071 216.02674,256.99682 V 207.91934 C 99.121133,202.01379 8.9195173,196.60152 -60.798008,187.20056 Z"
       style="fill:#000000;stroke:none;stroke-width:0.06500003;stroke-linecap:butt;stroke-linejoin:miter;stroke-miterlimit:4;stroke-dasharray:none;stroke-opacity:1"
       inkscape:export-xdpi="96"
       inkscape:export-ydpi="96" />
    <path
       inkscape:export-ydpi="96"
       inkscape:export-xdpi="96"
       sodipodi:nodetypes="cccccc"
       inkscape:connector-curvature="0"
       id="path170"
       d="m 745.64146,253.17118 0.0134,-69.24003 c -70.06758,35.23116 -180.51784,37.78542 -217.39727,6.79066 l -0.0134,62.72462 c 72.42784,-6.2029 145.01812,-10.53632 217.39667,-0.2553 z"
       style="fill:#000000;stroke:none;stroke-width:4.40205526px;stroke-linecap:butt;stroke-linejoin:miter;stroke-opacity:1" />
  </g>
</svg>
